<REAPER_PROJECT 0.1 "5.111/OSX64" 1477498633
  RIPPLE 0
  GROUPOVERRIDE 0 0 0
  AUTOXFADE 1
  ENVATTACH 1
  MIXERUIFLAGS 11 48
  PEAKGAIN 1
  FEEDBACK 0
  PANLAW 1
  PROJOFFS 0 0
  MAXPROJLEN 0 600
  GRID 3455 8 1 8 1 0 0
  TIMEMODE 1 5 -1 30 0
  VIDEO_CONFIG 0 0 256
  PANMODE 3
  CURSOR 1.8851960765055
  ZOOM 23.33974728059094 636 0
  VZOOMEX 6
  USE_REC_CFG 0
  RECMODE 1
  SMPTESYNC 0 30 100 40 1000 300 0 0 1
  LOOP 0
  LOOPGRAN 0 4
  RECORD_PATH "" ""
  <RECORD_CFG
  >
  <APPLYFX_CFG
  >
  RENDER_FILE "/Users/Hanze/Dropbox/Music_256A/PolyPlug/SuperMario.wav"
  RENDER_FMT 0 2 44100
  RENDER_1X 0
  RENDER_RANGE 2 0 0
  RENDER_RESAMPLE 9 0 1
  RENDER_ADDTOPROJ 0
  RENDER_STEMS 0
  RENDER_DITHER 0
  TIMELOCKMODE 1
  TEMPOENVLOCKMODE 1
  ITEMMIX 0
  DEFPITCHMODE 589824
  TAKELANE 1
  SAMPLERATE 44100 0 0
  <RENDER_CFG
    ZXZhdxACAA==
  >
  LOCK 1
  <METRONOME 6 2
    VOL 0.25 0.125
    FREQ 800 1600 1
    BEATLEN 4
    SAMPLES "" ""
    PATTERN 2863311530 2863311529
  >
  GLOBAL_AUTO -1
  TEMPO 120 4 4
  PLAYRATE 1 0 0.25 4
  SELECTION 3.12771167238413 68.03844021569857
  SELECTION2 3.12771167238413 68.03844021569857
  MASTERAUTOMODE 0
  MASTERTRACKHEIGHT 0
  MASTERPEAKCOL 16576
  MASTERMUTESOLO 0
  MASTERTRACKVIEW 0 0.6667 0.5 0.5 -1 -1 -1
  MASTERHWOUT 0 0 1 0 0 0 0 -1
  MASTER_NCH 2 2
  MASTER_VOLUME 1 0 -1 -1 1
  MASTER_FX 1
  MASTER_SEL 0
  <MASTERPLAYSPEEDENV
    ACT 0
    VIS 0 1 1
    LANEHEIGHT 0 0
    ARM 0
    DEFSHAPE 0 -1 -1
  >
  <TEMPOENVEX
    ACT 0
    VIS 1 0 1
    LANEHEIGHT 0 0
    ARM 0
    DEFSHAPE 1 -1 -1
  >
  <PROJBAY
  >
  <TRACK {2D260AFA-9ABC-F14D-8C91-552E2AE10FE2}
    NAME ""
    PEAKCOL 16576
    BEAT -1
    AUTOMODE 0
    VOLPAN 0.45583759840005 0 -1 -1 1
    MUTESOLO 0 0 0
    IPHASE 0
    ISBUS 0 0
    BUSCOMP 0 0
    SHOWINMIX 1 0.6667 0.5 1 0.5 -1 -1 -1
    FREEMODE 0
    SEL 0
    REC 0 4128 1 0 0 0 0
    VU 2
    TRACKHEIGHT 0 0
    INQ 0 0 0 0.5 100 0 0 100
    NCHAN 2
    FX 1
    TRACKID {2D260AFA-9ABC-F14D-8C91-552E2AE10FE2}
    PERF 0
    MIDIOUT -1
    MAINSEND 1 0
    <FXCHAIN
      WNDRECT 117 398 1264 309
      SHOW 1
      LASTSEL 0
      DOCKED 0
      BYPASS 0 0 0
      <VST "VST: PolyPlug (Hanze )" PolyPlug.vst 0 "" 1110535268
        ZGwxQu5e7f4CAAAAAQAAAAAAAAACAAAAAAAAAAIAAAABAAAAAAAAAAIAAAAAAAAAOgAAAAEAAAAAABAAVkMyITEAAAA8TVlQTFVHSU5TRVRUSU5HUyB1aVdpZHRoPSIx
        MDIwIiB1aUhlaWdodD0iMjMwIi8+AAAAEAAAAA==
      >
      FLOATPOS 0 0 0 0
      FXID {1F9A6AC3-0775-C14F-BA41-85C33CE00139}
      WAK 0
      BYPASS 0 0 0
      <VST "VST: BREVERB 2 (Overloud)" "BREVERB 2.vst" 0 "" 1112949298
        MkJWQu5e7f4CAAAAAQAAAAAAAAACAAAAAAAAAAIAAAABAAAAAAAAAAIAAAAAAAAAJhwAAAEAAAAAABAAVkMyIRwcAAA8cHJlc2V0IHZlcnNpb249IjEiIHJldmVyYj0i
        VEFfUk9PTSI+PGVmZmVjdCBpZD0iVEFfTUFTVEVSIiBwb3dlcj0iMSI+PHBhcmFtZXRlcnM+PHBhcmFtZXRlciBuYW1lPSJpbl9sZXZlbCIgdXNlcl92YWx1ZT0iMCIv
        PjxwYXJhbWV0ZXIgbmFtZT0iZHJ5X2xldmVsIiB1c2VyX3ZhbHVlPSIwIi8+PHBhcmFtZXRlciBuYW1lPSJ3ZXRfbGV2ZWwiIHVzZXJfdmFsdWU9IjAiLz48cGFyYW1l
        dGVyIG5hbWU9ImRyeV9MX3BhbiIgdXNlcl92YWx1ZT0iMCIvPjxwYXJhbWV0ZXIgbmFtZT0iZHJ5X1JfcGFuIiB1c2VyX3ZhbHVlPSIxIi8+PHBhcmFtZXRlciBuYW1l
        PSJ3ZXRfTF9wYW4iIHVzZXJfdmFsdWU9IjAiLz48cGFyYW1ldGVyIG5hbWU9IndldF9SX3BhbiIgdXNlcl92YWx1ZT0iMSIvPjwvcGFyYW1ldGVycz48L2VmZmVjdD48
        ZWZmZWN0IGlkPSJUQV9HQVRFIiBwb3dlcj0iMSI+PHBhcmFtZXRlcnM+PHBhcmFtZXRlciBuYW1lPSJwb3dlciIgdXNlcl92YWx1ZT0iMCIvPjxwYXJhbWV0ZXIgbmFt
        ZT0idGhyZXNob2xkIiB1c2VyX3ZhbHVlPSItMTkuOTk5OTY5NSIvPjxwYXJhbWV0ZXIgbmFtZT0iYXRrX3RpbWUiIHVzZXJfdmFsdWU9IjAuMDAxMDAwMDAwMDUiLz48
        cGFyYW1ldGVyIG5hbWU9ImhvbGRfdGltZSIgdW5zeW5jZWRfdXNlcl92YWx1ZT0iMC4wNDk5OTk4Nzc4IiBzeW5jZWRfdXNlcl92YWx1ZT0iMyIgc3luY191c2VyX3Zh
        bHVlPSIwIi8+PHBhcmFtZXRlciBuYW1lPSJyZWxfdGltZSIgdW5zeW5jZWRfdXNlcl92YWx1ZT0iMC4yOTk5OTk3MTQiIHN5bmNlZF91c2VyX3ZhbHVlPSIzIiBzeW5j
        X3VzZXJfdmFsdWU9IjAiLz48cGFyYW1ldGVyIG5hbWU9InNoYXBlIiB1c2VyX3ZhbHVlPSIwIi8+PHBhcmFtZXRlciBuYW1lPSJzbG9wZSIgdXNlcl92YWx1ZT0iMC41
        Ii8+PC9wYXJhbWV0ZXJzPjwvZWZmZWN0PjxlZmZlY3QgaWQ9IlRBX0VRIiBwb3dlcj0iMSI+PHBhcmFtZXRlcnM+PHBhcmFtZXRlciBuYW1lPSJlcSIgdXNlcl92YWx1
        ZT0iMCIvPjxwYXJhbWV0ZXIgbmFtZT0iZXExX2dhaW4iIHVzZXJfdmFsdWU9IjAiLz48cGFyYW1ldGVyIG5hbWU9ImVxMV9mcmVxIiB1c2VyX3ZhbHVlPSIxMjAiLz48
        cGFyYW1ldGVyIG5hbWU9ImVxMV9RIiB1c2VyX3ZhbHVlPSIwLjYwMDAwMDAyNCIvPjxwYXJhbWV0ZXIgbmFtZT0iZXEyX2dhaW4iIHVzZXJfdmFsdWU9IjAiLz48cGFy
        YW1ldGVyIG5hbWU9ImVxMl9mcmVxIiB1c2VyX3ZhbHVlPSI1MDAwLjAwMDQ5Ii8+PHBhcmFtZXRlciBuYW1lPSJlcTJfUSIgdXNlcl92YWx1ZT0iMC42MDAwMDAwMjQi
        Lz48L3BhcmFtZXRlcnM+PC9lZmZlY3Q+PGVmZmVjdCBpZD0iVEFfSEFMTCIgcG93ZXI9IjEiPjxwYXJhbWV0ZXJzPjxwYXJhbWV0ZXIgbmFtZT0idGltZSIgdXNlcl92
        YWx1ZT0iMiIvPjxwYXJhbWV0ZXIgbmFtZT0ic2l6ZSIgdXNlcl92YWx1ZT0iNTAiLz48cGFyYW1ldGVyIG5hbWU9ImRpZmZ1c2lvbiIgdXNlcl92YWx1ZT0iNTAiLz48
        cGFyYW1ldGVyIG5hbWU9InNoYXBlIiB1c2VyX3ZhbHVlPSI1MCIvPjxwYXJhbWV0ZXIgbmFtZT0ic3ByZWFkIiB1c2VyX3ZhbHVlPSI1MCIvPjxwYXJhbWV0ZXIgbmFt
        ZT0icHJlZGVsYXkiIHVuc3luY2VkX3VzZXJfdmFsdWU9IjAuMDA5OTk5OTk5NzgiIHN5bmNlZF91c2VyX3ZhbHVlPSIwIiBzeW5jX3VzZXJfdmFsdWU9IjAiLz48cGFy
        YW1ldGVyIG5hbWU9InJlZ2VuX2wiIHVzZXJfdmFsdWU9IjAiLz48cGFyYW1ldGVyIG5hbWU9InJlZ2VuX3IiIHVzZXJfdmFsdWU9IjAiLz48cGFyYW1ldGVyIG5hbWU9
        Im1vdGlvbiIgdXNlcl92YWx1ZT0iMTAiLz48cGFyYW1ldGVyIG5hbWU9ImRlcHRoIiB1c2VyX3ZhbHVlPSIyMCIvPjxwYXJhbWV0ZXIgbmFtZT0iaGlnaCIgdXNlcl92
        YWx1ZT0iMSIvPjxwYXJhbWV0ZXIgbmFtZT0iaGlnaF9mcmVxIiB1c2VyX3ZhbHVlPSIzMDAwIi8+PHBhcmFtZXRlciBuYW1lPSJkYW1waW5nIiB1c2VyX3ZhbHVlPSI1
        MDAwIi8+PHBhcmFtZXRlciBuYW1lPSJsb3ciIHVzZXJfdmFsdWU9IjEiLz48cGFyYW1ldGVyIG5hbWU9Imxvd19mcmVxIiB1c2VyX3ZhbHVlPSIzMDAiLz48cGFyYW1l
        dGVyIG5hbWU9Imxvd19jdXQiIHVzZXJfdmFsdWU9IjMwMDAiLz48L3BhcmFtZXRlcnM+PC9lZmZlY3Q+PGVmZmVjdCBpZD0iVEFfUExBVEUiIHBvd2VyPSIxIj48cGFy
        YW1ldGVycz48cGFyYW1ldGVyIG5hbWU9InRpbWUiIHVzZXJfdmFsdWU9IjIiLz48cGFyYW1ldGVyIG5hbWU9InNpemUiIHVzZXJfdmFsdWU9IjUwIi8+PHBhcmFtZXRl
        ciBuYW1lPSJkaWZmdXNpb24iIHVzZXJfdmFsdWU9IjUwIi8+PHBhcmFtZXRlciBuYW1lPSJzaGFwZSIgdXNlcl92YWx1ZT0iNTAiLz48cGFyYW1ldGVyIG5hbWU9Imhp
        Z2giIHVzZXJfdmFsdWU9IjEiLz48cGFyYW1ldGVyIG5hbWU9ImhpZ2hfZnJlcSIgdXNlcl92YWx1ZT0iMzAwMCIvPjxwYXJhbWV0ZXIgbmFtZT0iUnRIQyIgdXNlcl92
        YWx1ZT0iNjAwMCIvPjxwYXJhbWV0ZXIgbmFtZT0ibG93IiB1c2VyX3ZhbHVlPSIxIi8+PHBhcmFtZXRlciBuYW1lPSJsb3dfZnJlcSIgdXNlcl92YWx1ZT0iMzAwIi8+
        PHBhcmFtZXRlciBuYW1lPSJwcmVkZWxheSIgdW5zeW5jZWRfdXNlcl92YWx1ZT0iMC4wMDk5OTk5OTk3OCIgc3luY2VkX3VzZXJfdmFsdWU9IjAiIHN5bmNfdXNlcl92
        YWx1ZT0iMCIvPjxwYXJhbWV0ZXIgbmFtZT0icmVnZW4iIHVzZXJfdmFsdWU9IjAiLz48cGFyYW1ldGVyIG5hbWU9Im1vdGlvbiIgdXNlcl92YWx1ZT0iMTAiLz48L3Bh
        cmFtZXRlcnM+PC9lZmZlY3Q+PGVmZmVjdCBpZD0iVEFfUk9PTSIgcG93ZXI9IjEiPjxwYXJhbWV0ZXJzPjxwYXJhbWV0ZXIgbmFtZT0idGltZSIgdXNlcl92YWx1ZT0i
        MC41OTM5NzE2MSIvPjxwYXJhbWV0ZXIgbmFtZT0ic2l6ZSIgdXNlcl92YWx1ZT0iMjMuMTIwMTE3MiIvPjxwYXJhbWV0ZXIgbmFtZT0iZGlmZnVzaW9uIiB1c2VyX3Zh
        bHVlPSIzOC4xMzQ3NjU2Ii8+PHBhcmFtZXRlciBuYW1lPSJkZWNheSIgdXNlcl92YWx1ZT0iNDkuMjY3NTc4MSIvPjxwYXJhbWV0ZXIgbmFtZT0iaGlnaCIgdXNlcl92
        YWx1ZT0iNTgzNy4xMTUyMyIvPjxwYXJhbWV0ZXIgbmFtZT0icHJlZGVsYXkiIHVuc3luY2VkX3VzZXJfdmFsdWU9IjAuMDA5MTU1MjczNDQiIHN5bmNlZF91c2VyX3Zh
        bHVlPSIwIiBzeW5jX3VzZXJfdmFsdWU9IjAiLz48cGFyYW1ldGVyIG5hbWU9ImRhbXBpbmciIHVzZXJfdmFsdWU9IjE4MDAwIi8+PHBhcmFtZXRlciBuYW1lPSJsb3ci
        IHVzZXJfdmFsdWU9IjE0Ny44ODQ0NzYiLz48cGFyYW1ldGVyIG5hbWU9Im1vdGlvbiIgdXNlcl92YWx1ZT0iNDAuMTYxMTMyOCIvPjxwYXJhbWV0ZXIgbmFtZT0iZGVw
        dGgiIHVzZXJfdmFsdWU9IjMwLjAwMDAwMTkiLz48L3BhcmFtZXRlcnM+PC9lZmZlY3Q+PGVmZmVjdCBpZD0iVEFfSU5WRVJTRSIgcG93ZXI9IjEiPjxwYXJhbWV0ZXJz
        PjxwYXJhbWV0ZXIgbmFtZT0idGltZSIgdXNlcl92YWx1ZT0iMiIvPjxwYXJhbWV0ZXIgbmFtZT0iZGlmZnVzaW9uIiB1c2VyX3ZhbHVlPSI1MCIvPjxwYXJhbWV0ZXIg
        bmFtZT0iaGlnaCIgdXNlcl92YWx1ZT0iNjAwMCIvPjxwYXJhbWV0ZXIgbmFtZT0icHJlZGVsYXkiIHVuc3luY2VkX3VzZXJfdmFsdWU9IjAuMDA5OTk5OTk5NzgiIHN5
        bmNlZF91c2VyX3ZhbHVlPSIwIiBzeW5jX3VzZXJfdmFsdWU9IjAiLz48cGFyYW1ldGVyIG5hbWU9ImxvdyIgdXNlcl92YWx1ZT0iMTAwIi8+PHBhcmFtZXRlciBuYW1l
        PSJtb3Rpb24iIHVzZXJfdmFsdWU9IjEwIi8+PHBhcmFtZXRlciBuYW1lPSJkZXB0aCIgdXNlcl92YWx1ZT0iMjAiLz48L3BhcmFtZXRlcnM+PC9lZmZlY3Q+PGVmZmVj
        dCBpZD0iVEFfU1BBQ0VTX1NNQUxMIiBwb3dlcj0iMSI+PHBhcmFtZXRlcnM+PHBhcmFtZXRlciBuYW1lPSJyZXZfc3BhY2UiIHVzZXJfdmFsdWU9IjAiLz48cGFyYW1l
        dGVyIG5hbWU9InRpbWUiIHVzZXJfdmFsdWU9IjIiLz48cGFyYW1ldGVyIG5hbWU9InJldl9kZWxheSIgdXNlcl92YWx1ZT0iMCIvPjxwYXJhbWV0ZXIgbmFtZT0icHJl
        ZGVsYXkiIHVuc3luY2VkX3VzZXJfdmFsdWU9IjAuMDA5OTk5OTk5NzgiIHN5bmNlZF91c2VyX3ZhbHVlPSIwIiBzeW5jX3VzZXJfdmFsdWU9IjAiLz48cGFyYW1ldGVy
        IG5hbWU9ImVseV9sZXZlbCIgdXNlcl92YWx1ZT0iMCIvPjxwYXJhbWV0ZXIgbmFtZT0icnZiX2xldmVsIiB1c2VyX3ZhbHVlPSIwIi8+PHBhcmFtZXRlciBuYW1lPSJl
        bHlfdHlwZSIgdXNlcl92YWx1ZT0iMCIvPjxwYXJhbWV0ZXIgbmFtZT0iZWx5X2NvbG9yIiB1c2VyX3ZhbHVlPSIwIi8+PHBhcmFtZXRlciBuYW1lPSJlbHlfc2l6ZSIg
        dXNlcl92YWx1ZT0iMSIvPjxwYXJhbWV0ZXIgbmFtZT0iZWx5X2xvX2N1dCIgdXNlcl92YWx1ZT0iMjAiLz48cGFyYW1ldGVyIG5hbWU9ImVseV9iYWxhbmNlIiB1c2Vy
        X3ZhbHVlPSIwIi8+PHBhcmFtZXRlciBuYW1lPSJyZXZfZGlmZnVzZSIgdXNlcl92YWx1ZT0iMCIvPjxwYXJhbWV0ZXIgbmFtZT0ibG9fY3V0IiB1c2VyX3ZhbHVlPSIx
        MDAiLz48cGFyYW1ldGVyIG5hbWU9ImxvX2R1bXAiIHVzZXJfdmFsdWU9IjAiLz48cGFyYW1ldGVyIG5hbWU9ImhpX2N1dCIgdXNlcl92YWx1ZT0iMTAwMDAiLz48cGFy
        YW1ldGVyIG5hbWU9ImhpX3NvZnRlbiIgdXNlcl92YWx1ZT0iMCIvPjxwYXJhbWV0ZXIgbmFtZT0ibG9fZGVjYXkiIHVzZXJfdmFsdWU9IjEiLz48cGFyYW1ldGVyIG5h
        bWU9ImxvX3hvdmVyIiB1c2VyX3ZhbHVlPSIxMDAiLz48cGFyYW1ldGVyIG5hbWU9ImxvX21pZF9kZWNheSIgdXNlcl92YWx1ZT0iMSIvPjxwYXJhbWV0ZXIgbmFtZT0i
        bWlkX3hvdmVyIiB1c2VyX3ZhbHVlPSIxMDAwIi8+PHBhcmFtZXRlciBuYW1lPSJoaV9taWRfZGVjYXkiIHVzZXJfdmFsdWU9IjEiLz48cGFyYW1ldGVyIG5hbWU9Imhp
        X3hvdmVyIiB1c2VyX3ZhbHVlPSIxMDAwMCIvPjxwYXJhbWV0ZXIgbmFtZT0iaGlfZGVjYXkiIHVzZXJfdmFsdWU9IjEiLz48L3BhcmFtZXRlcnM+PC9lZmZlY3Q+PGVm
        ZmVjdCBpZD0iVEFfU1BBQ0VTX0xBUkdFIiBwb3dlcj0iMSI+PHBhcmFtZXRlcnM+PHBhcmFtZXRlciBuYW1lPSJyZXZfc3BhY2UiIHVzZXJfdmFsdWU9IjAiLz48cGFy
        YW1ldGVyIG5hbWU9InRpbWUiIHVzZXJfdmFsdWU9IjIiLz48cGFyYW1ldGVyIG5hbWU9InJldl9kZWxheSIgdXNlcl92YWx1ZT0iMCIvPjxwYXJhbWV0ZXIgbmFtZT0i
        cHJlZGVsYXkiIHVuc3luY2VkX3VzZXJfdmFsdWU9IjAuMDA5OTk5OTk5NzgiIHN5bmNlZF91c2VyX3ZhbHVlPSIwIiBzeW5jX3VzZXJfdmFsdWU9IjAiLz48cGFyYW1l
        dGVyIG5hbWU9ImVseV9sZXZlbCIgdXNlcl92YWx1ZT0iMCIvPjxwYXJhbWV0ZXIgbmFtZT0icnZiX2xldmVsIiB1c2VyX3ZhbHVlPSIwIi8+PHBhcmFtZXRlciBuYW1l
        PSJlbHlfdHlwZSIgdXNlcl92YWx1ZT0iMCIvPjxwYXJhbWV0ZXIgbmFtZT0iZWx5X2NvbG9yIiB1c2VyX3ZhbHVlPSIwIi8+PHBhcmFtZXRlciBuYW1lPSJlbHlfc2l6
        ZSIgdXNlcl92YWx1ZT0iMSIvPjxwYXJhbWV0ZXIgbmFtZT0iZWx5X2xvX2N1dCIgdXNlcl92YWx1ZT0iMjAiLz48cGFyYW1ldGVyIG5hbWU9ImVseV9iYWxhbmNlIiB1
        c2VyX3ZhbHVlPSIwIi8+PHBhcmFtZXRlciBuYW1lPSJyZXZfZGlmZnVzZSIgdXNlcl92YWx1ZT0iMCIvPjxwYXJhbWV0ZXIgbmFtZT0ibG9fY3V0IiB1c2VyX3ZhbHVl
        PSIxMDAiLz48cGFyYW1ldGVyIG5hbWU9ImxvX2R1bXAiIHVzZXJfdmFsdWU9IjAiLz48cGFyYW1ldGVyIG5hbWU9ImhpX2N1dCIgdXNlcl92YWx1ZT0iMTAwMDAiLz48
        cGFyYW1ldGVyIG5hbWU9ImhpX3NvZnRlbiIgdXNlcl92YWx1ZT0iMCIvPjxwYXJhbWV0ZXIgbmFtZT0ibG9fZGVjYXkiIHVzZXJfdmFsdWU9IjEiLz48cGFyYW1ldGVy
        IG5hbWU9ImxvX3hvdmVyIiB1c2VyX3ZhbHVlPSIxMDAiLz48cGFyYW1ldGVyIG5hbWU9ImxvX21pZF9kZWNheSIgdXNlcl92YWx1ZT0iMSIvPjxwYXJhbWV0ZXIgbmFt
        ZT0ibWlkX3hvdmVyIiB1c2VyX3ZhbHVlPSIxMDAwIi8+PHBhcmFtZXRlciBuYW1lPSJoaV9taWRfZGVjYXkiIHVzZXJfdmFsdWU9IjEiLz48cGFyYW1ldGVyIG5hbWU9
        ImhpX3hvdmVyIiB1c2VyX3ZhbHVlPSIxMDAwMCIvPjxwYXJhbWV0ZXIgbmFtZT0iaGlfZGVjYXkiIHVzZXJfdmFsdWU9IjEiLz48L3BhcmFtZXRlcnM+PC9lZmZlY3Q+
        PGVmZmVjdCBpZD0iVEFfU09VUkNFX1JFViIgcG93ZXI9IjEiPjxwYXJhbWV0ZXJzPjxwYXJhbWV0ZXIgbmFtZT0icmV2X3NwYWNlIiB1c2VyX3ZhbHVlPSIwIi8+PHBh
        cmFtZXRlciBuYW1lPSJ0aW1lIiB1c2VyX3ZhbHVlPSIxIi8+PHBhcmFtZXRlciBuYW1lPSJwcmVkZWxheSIgdW5zeW5jZWRfdXNlcl92YWx1ZT0iMC4wMDk5OTk5OTk3
        OCIgc3luY2VkX3VzZXJfdmFsdWU9IjAiIHN5bmNfdXNlcl92YWx1ZT0iMCIvPjxwYXJhbWV0ZXIgbmFtZT0iZWx5X2xldmVsIiB1c2VyX3ZhbHVlPSIwIi8+PHBhcmFt
        ZXRlciBuYW1lPSJydmJfbGV2ZWwiIHVzZXJfdmFsdWU9IjAiLz48cGFyYW1ldGVyIG5hbWU9ImVseV9kaXN0MSIgdXNlcl92YWx1ZT0iMCIvPjxwYXJhbWV0ZXIgbmFt
        ZT0iZWx5X3JhZGlhbDEiIHVzZXJfdmFsdWU9IjAiLz48cGFyYW1ldGVyIG5hbWU9ImVseV9zcmMxbGV2IiB1c2VyX3ZhbHVlPSIwIi8+PHBhcmFtZXRlciBuYW1lPSJl
        bHlfZGlzdDIiIHVzZXJfdmFsdWU9IjAiLz48cGFyYW1ldGVyIG5hbWU9ImVseV9yYWRpYWwyIiB1c2VyX3ZhbHVlPSIwIi8+PHBhcmFtZXRlciBuYW1lPSJlbHlfc3Jj
        MmxldiIgdXNlcl92YWx1ZT0iMCIvPjxwYXJhbWV0ZXIgbmFtZT0iZWx5X2xvX2NvbG9yIiB1c2VyX3ZhbHVlPSIwIi8+PHBhcmFtZXRlciBuYW1lPSJlbHlfaGlfY29s
        b3IiIHVzZXJfdmFsdWU9IjAiLz48cGFyYW1ldGVyIG5hbWU9ImVseV9zdGFydCIgdXNlcl92YWx1ZT0iMCIvPjxwYXJhbWV0ZXIgbmFtZT0iZWx5X3N0b3AiIHVzZXJf
        dmFsdWU9IjAiLz48cGFyYW1ldGVyIG5hbWU9ImVseV9kZWNyZWFzZSIgdXNlcl92YWx1ZT0iMCIvPjxwYXJhbWV0ZXIgbmFtZT0icmV2X3NpemUiIHVzZXJfdmFsdWU9
        IjAiLz48cGFyYW1ldGVyIG5hbWU9InJldl9kaWZmdXNlIiB1c2VyX3ZhbHVlPSIwIi8+PHBhcmFtZXRlciBuYW1lPSJsb19jdXQiIHVzZXJfdmFsdWU9IjEwMCIvPjxw
        YXJhbWV0ZXIgbmFtZT0ibG9fZHVtcCIgdXNlcl92YWx1ZT0iMCIvPjxwYXJhbWV0ZXIgbmFtZT0iaGlfY3V0IiB1c2VyX3ZhbHVlPSIxMDAwMCIvPjxwYXJhbWV0ZXIg
        bmFtZT0iaGlfc29mdGVuIiB1c2VyX3ZhbHVlPSIwIi8+PC9wYXJhbWV0ZXJzPjwvZWZmZWN0PjwvcHJlc2V0PgAAAAAQAAAA
      >
      FLOATPOS 0 0 0 0
      FXID {C94DE877-0167-3441-83BA-EBAF68809D57}
      WAK 0
      BYPASS 0 0 0
      <VST "VST: MEqualizer (MeldaProduction)" MEqualizer.vst 0 "" 1296131379
        M2VBTe5e7f4CAAAAAQAAAAAAAAACAAAAAAAAAAIAAAABAAAAAAAAAAIAAAAAAAAAAAQAAAEAAAAAABAAeNqlVW1v2jAQ/s6viPJ1a3DivBAJqBhq2kqlRaVqt48eMcRq
        sDPHKbS/fmcnEGCMaRtfOD++e+7Fd5f+5WaVW29Ulkzwge06yLYon4uU8eXArtTiomdfDjv9kioFUGmNrscDG5TGGeGc5hOR0oF9RxfK+mQ9smWm4ErkOSlKmk6qXLEp
        kWR1lzxMCaiDh717o7+HV1JSrqaSgrdbntKN8XSVMiXkjH2AI/T5ALgi5XsDZiRfLAnjxiT7URUlWRW5yQKo79iKKSrN5YRsIJwvuZi/1qTYs61CR0lBJaWFyozNDtrR
        7pCZWKgZUZUkypQN7o6jPgrgeVvhwPMD37eH/drA7UJxa9FrRdyKfisGrRi2YtSIb0xU5T3dNPUbC64kFJpKfX8tSZEN+4VgXFk/IEAnQpGLIttS74V+QLGeZTRf2NZX
        3QQRcpEXx3EQhrb1bWCHDg6i0A16sY907DdErgRn87I77HcN6RnuKSWvhtdzPC8K4zAMPYwNL3biCAcojjGOov/gDQMfhxh7sWF1nRhFXs+Pwp7n/pnV88IYeb+wYge5
        AXaDCMILDC/65whdB+P9CC+wozP2e9j38fnErzj5ntPU9NQJFzcwQu3LYacXQX/1ghCiPhtzt+6ITn8kKSn1TMCEfNBHsS51v+qeGXGSv39QaY3yIiPaNZRhCx6M/4Rt
        7INAa/klo/yGpSnlZgRmopJzasQXxlOxfqozAKJ6HBYsh9mCiYGTyT3JyVKHA82yMUXca8vuaSX/WKl7RCzFnJalkEivIaE3AvxG4yTZywAiTFheL6UH2I2SpbTRBkS/
        allnlIm1wZ9JXtGmcK0Lt3UxGiN04AKdYN639ba22vIvbfG+7VFqv7GdCS6WsNy2b+0emICCUS5rYlQXTf/sGnG3SG+LeDWSJNq7QbBGkqTOxSD+wNZng+iX2vYW9F67
        vUrdivdC0SOo/bbohVxDRhr2b/kE6B4qpf9eWKqy5lxUaq2PT9YzKxlk1yR3y+HmJLgmb3Qh5OppbwjqxHeMx3aNn3OG3SbSTr+7/a4OOz8BMxBNfTxJbnB1dHdhdmVm
        b3JtVCBBbHBoYT0iMC41MDAwMDAiLz48T3V0cHV0VCBWaXNpYmxlPSIwIi8+PE91dHB1dHdhdmVmb3JtVCBBbHBoYT0iMC41MDAwMDAiLz48L01ldGVycz4KPC9zZXR0
        aW5ncz4KbW9uaWNzLz48L3BvaW50Pjxwb2ludCBFbmFibGVkPSIwIiBxPSIwLjcwNzEwNyIgdHlwZT0iSGlnaFNoZWxmIiBYPSIzLjg3MjQ1ODU2NzA5IiBZPSIwIj48
        SGFybW9uaWNzLz48L3BvaW50PjwvR3JhcGg+CgAAEAAAAA==
      >
      FLOATPOS 0 0 0 0
      FXID {33B9EA1D-F247-FD49-9D1C-00AC0805AA9B}
      WAK 0
    >
    <ITEM
      POSITION 3.23053253381208
      SNAPOFFS 0
      LENGTH 64.7951946275107
      LOOP 1
      ALLTAKES 0
      FADEIN 1 0 0 1 0 0
      FADEOUT 1 0 0 1 0 0
      MUTE 0
      SEL 0
      IGUID {FB3DB9E9-E36B-1C4A-99CE-289D7B52B317}
      IID 4
      NAME "01-Recorded MIDI-glued"
      VOLPAN 1 0 1 -1
      SOFFS 3.23053253381208 6.46106506762417
      PLAYRATE 1 1 0 -1 0 0.0025
      CHANMODE 0
      GUID {2F539701-21F8-A44B-8B2E-534BF70E3EB6}
      <SOURCE MIDI
        HASDATA 1 960 QN
        POOLEDEVTS {923A5D42-773B-2C45-9A4A-C9943D79F438}
        E 6580 90 3c 68
        E 7 90 30 58
        E 250 90 3c 00
        E 31 90 48 59
        E 64 90 30 00
        E 197 90 2d 4a
        E 13 90 39 45
        E 13 90 48 00
        E 31 90 2f 3f
        E 96 90 2f 00
        E 18 90 39 00
        E 39 90 2d 00
        E 42 90 45 4e
        E 272 90 45 00
        E 0 90 2e 5a
        E 0 90 3a 5c
        E 268 90 46 57
        E 29 90 3a 00
        E 26 90 2e 00
        E 230 90 46 00
        E 2607 90 30 5f
        E 0 90 3c 66
        E 171 90 3c 00
        E 68 90 48 5a
        E 5 90 30 00
        E 257 90 48 00
        E 4 90 39 66
        E 13 90 2d 64
        E 149 90 39 00
        E 26 90 2d 00
        E 89 90 45 4f
        E 242 90 45 00
        E 27 90 3a 58
        E 30 90 2e 57
        E 178 90 46 59
        E 89 90 3a 00
        E 36 90 2e 00
        E 108 90 46 00
        E 2481 90 35 61
        E 0 90 41 6e
        E 173 90 41 00
        E 84 90 35 00
        E 15 90 4d 5d
        E 23 b0 40 7f
        E 47 b0 40 00
        E 145 90 4d 00
        E 11 90 3e 64
        E 16 90 32 5f
        E 144 90 3e 00
        E 36 90 32 00
        E 85 90 4a 52
        E 200 90 4a 00
        E 92 90 3f 61
        E 10 90 33 5e
        E 241 90 3f 00
        E 13 90 4b 59
        E 35 90 33 00
        E 219 90 4b 00
        E 883 b0 40 7f
        E 355 90 5f 4f
        E 168 90 64 5a
        E 15 90 5f 00
        E 163 90 64 00
        E 415 90 5f 47
        E 104 90 5f 00
        E 44 90 64 57
        E 215 90 64 00
        E 374 90 5f 4c
        E 158 90 5f 00
        E 10 90 64 50
        E 157 90 64 00
        E 1186 b0 40 00
        E 28 90 41 6a
        E 12 90 35 61
        E 187 90 41 00
        E 81 90 4d 5d
        E 3 90 35 00
        E 222 90 3e 66
        E 11 90 32 63
        E 12 90 4d 00
        E 132 90 3e 00
        E 19 90 32 00
        E 75 90 4a 47
        E 243 90 4a 00
        E 18 90 3f 66
        E 15 90 33 63
        E 261 90 4b 5e
        E 64 90 33 00
        E 8 90 3f 00
        E 144 90 4b 00
        E 1964 90 3f 48
        E 18 90 4b 47
        E 184 90 4a 57
        E 25 90 3e 4f
        E 5 90 3f 00
        E 135 90 4b 00
        E 25 90 3d 48
        E 5 90 49 5c
        E 56 90 3e 00
        E 15 90 4a 00
        E 100 90 3d 00
        E 28 90 3c 5b
        E 29 90 48 63
        E 5 90 49 00
        E 205 90 3c 00
        E 10 90 48 00
        E 527 90 3f 5b
        E 0 90 4b 61
        E 170 90 4b 00
        E 61 90 3f 00
        E 488 90 3e 4a
        E 0 90 4a 63
        E 143 90 3e 00
        E 8 90 4a 00
        E 565 90 38 4b
        E 10 90 44 61
        E 208 90 38 00
        E 24 90 44 00
        E 458 90 37 4c
        E 32 90 43 5a
        E 166 90 43 00
        E 84 90 37 00
        E 484 90 49 5b
        E 15 90 3d 5c
        E 137 90 49 00
        E 31 90 3d 00
        E 502 90 3c 47
        E 27 90 48 4e
        E 178 90 48 00
        E 59 90 4e 4b
        E 9 90 42 49
        E 60 90 3c 00
        E 140 90 4d 42
        E 74 90 42 00
        E 8 90 41 33
        E 89 90 4e 00
        E 54 90 4d 00
        E 19 90 4c 53
        E 2 90 41 00
        E 24 90 40 47
        E 172 90 4c 00
        E 75 90 40 00
        E 37 90 46 54
        E 43 90 52 35
        E 119 90 52 00
        E 46 90 51 4b
        E 28 90 46 00
        E 14 90 45 4b
        E 237 90 50 56
        E 0 90 44 54
        E 8 90 51 00
        E 42 90 45 00
        E 27 90 44 00
        E 134 90 50 00
        E 331 90 40 50
        E 18 90 4c 40
        E 167 90 4c 00
        E 52 90 40 00
        E 278 90 3b 4d
        E 4 90 47 4e
        E 166 90 47 00
        E 45 90 3b 00
        E 229 90 46 4b
        E 0 90 3a 4c
        E 129 90 3a 00
        E 73 90 46 00
        E 360 90 45 50
        E 18 90 39 39
        E 197 90 45 00
        E 0 90 39 00
        E 396 90 38 48
        E 26 90 44 56
        E 219 90 44 00
        E 24 90 38 00
        E 1589 b0 40 7f
        E 78 90 5f 40
        E 151 90 5f 00
        E 20 90 64 4f
        E 100 90 64 00
        E 476 90 5f 3e
        E 167 90 5f 00
        E 13 90 64 52
        E 127 90 64 00
        E 1230 b0 40 00
        E 1176 90 4e 59
        E 0 90 58 53
        E 0 90 3e 63
        E 159 90 4e 00
        E 12 90 3e 00
        E 3 90 58 00
        E 105 90 3e 68
        E 8 90 4e 53
        E 11 90 58 5a
        E 151 90 4e 00
        E 19 90 3e 00
        E 0 90 58 00
        E 367 90 3e 68
        E 10 90 4e 65
        E 10 90 58 5b
        E 151 90 4e 00
        E 5 90 3e 00
        E 37 90 58 00
        E 347 90 3e 63
        E 6 90 4e 56
        E 17 90 54 46
        E 111 90 4e 00
        E 16 90 3e 00
        E 93 90 54 00
        E 6 90 3e 6f
        E 18 90 58 5e
        E 0 90 4e 5e
        E 101 90 4e 00
        E 49 90 3e 00
        E 12 90 58 00
        E 475 90 5b 62
        E 0 90 53 60
        E 10 90 4f 54
        E 90 90 4f 00
        E 78 90 53 00
        E 8 90 5b 00
        E 959 90 43 50
        E 4 90 4f 5d
        E 200 90 4f 00
        E 52 90 43 00
        E 877 90 43 5d
        E 0 90 4c 64
        E 5 90 54 4f
        E 112 90 54 00
        E 42 90 4c 00
        E 35 90 43 00
        E 714 90 48 5c
        E 10 90 40 5c
        E 6 90 4f 5c
        E 159 90 4f 00
        E 13 90 48 00
        E 28 90 40 00
        E 653 90 3c 5b
        E 0 90 43 5a
        E 15 90 4c 57
        E 157 90 43 00
        E 117 90 4c 00
        E 55 90 3c 00
        E 571 90 41 5c
        E 0 90 48 63
        E 8 90 51 5d
        E 180 90 48 00
        E 9 90 41 00
        E 54 90 51 00
        E 289 90 4a 5a
        E 0 90 53 57
        E 13 90 43 53
        E 144 90 53 00
        E 19 90 4a 00
        E 42 90 43 00
        E 216 90 49 50
        E 19 90 52 47
        E 22 90 42 4e
        E 43 90 49 00
        E 17 90 52 00
        E 153 90 42 00
        E 25 90 41 59
        E 22 90 51 49
        E 34 90 48 3e
        E 70 90 51 00
        E 28 90 48 00
        E 48 90 41 00
        E 271 90 3c 51
        E 30 90 48 4b
        E 17 90 4f 57
        E 64 90 48 00
        E 100 90 4f 00
        E 21 90 3c 00
        E 147 90 48 53
        E 19 90 58 57
        E 0 90 4f 56
        E 148 90 48 00
        E 28 90 4f 00
        E 67 90 58 00
        E 205 90 5b 57
        E 18 90 4a 59
        E 23 90 53 57
        E 152 90 53 00
        E 19 90 4a 00
        E 29 90 5b 00
        E 65 90 4d 60
        E 30 90 54 5a
        E 16 90 5d 46
        E 121 90 54 00
        E 28 90 4d 00
        E 75 90 5d 00
        E 321 90 4a 56
        E 21 90 59 4c
        E 0 90 51 47
        E 148 90 51 00
        E 39 90 4a 00
        E 46 90 59 00
        E 32 90 4c 5f
        E 8 90 5b 63
        E 23 90 51 4c
        E 7 90 53 57
        E 68 90 53 00
        E 61 90 4c 00
        E 14 90 51 00
        E 4 90 5b 00
        E 486 90 48 5c
        E 30 90 4f 63
        E 0 90 58 5e
        E 142 90 48 00
        E 12 90 4f 00
        E 94 90 58 00
        E 271 90 45 56
        E 15 90 4f 52
        E 20 90 54 4a
        E 78 90 45 00
        E 56 90 4f 00
        E 55 90 54 00
        E 53 90 47 64
        E 24 90 56 5c
        E 151 90 47 00
        E 48 90 56 00
        E 45 90 43 5c
        E 18 90 4f 60
        E 0 90 53 66
        E 220 90 43 00
        E 252 90 4f 00
        E 91 90 53 00
        E 537 90 3c 66
        E 122 b0 40 7f
        E 240 90 3c 00
        E 25 b0 40 00
        E 148 90 58 4e
        E 10 90 5b 3f
        E 149 90 58 00
        E 34 90 5b 00
        E 83 90 43 57
        E 0 90 57 56
        E 21 90 5a 53
        E 83 90 5a 00
        E 79 90 57 00
        E 10 90 43 00
        E 120 90 56 38
        E 14 90 59 35
        E 77 90 56 00
        E 33 90 59 00
        E 70 90 57 4a
        E 41 90 53 4e
        E 204 90 53 00
        E 70 90 48 59
        E 179 90 48 00
        E 71 90 57 00
        E 87 90 58 54
        E 4 90 54 50
        E 128 90 54 00
        E 50 90 58 00
        E 77 90 41 5c
        E 281 90 50 4a
        E 45 90 4d 3c
        E 23 90 41 00
        E 78 90 4d 00
        E 79 90 50 00
        E 61 90 4d 4f
        E 20 90 51 56
        E 98 90 4d 00
        E 13 90 51 00
        E 138 90 54 5a
        E 10 90 4d 47
        E 265 90 48 56
        E 8 90 4d 00
        E 201 90 48 00
        E 120 90 54 00
        E 51 90 51 56
        E 26 90 4d 4c
        E 212 90 51 00
        E 24 90 54 54
        E 0 90 48 64
        E 180 90 48 00
        E 46 90 4d 00
        E 53 90 56 60
        E 39 90 54 00
        E 123 90 56 00
        E 107 90 3c 5f
        E 417 90 3c 00
        E 136 90 58 4f
        E 27 90 5b 40
        E 106 90 5b 00
        E 35 90 58 00
        E 92 90 43 52
        E 19 90 5a 56
        E 19 90 57 52
        E 96 90 57 00
        E 15 90 5a 00
        E 75 90 43 00
        E 120 90 59 4b
        E 17 90 56 3c
        E 110 90 56 00
        E 1 90 59 00
        E 96 90 57 5a
        E 67 90 53 42
        E 194 90 48 5f
        E 89 90 53 00
        E 108 90 48 00
        E 14 90 57 00
        E 97 90 53 50
        E 0 90 58 5a
        E 76 90 53 00
        E 98 90 58 00
        E 429 90 59 5a
        E 0 90 5b 5b
        E 0 90 60 5e
        E 116 90 5b 00
        E 21 90 59 00
        E 39 90 60 00
        E 409 90 5b 54
        E 19 90 59 4b
        E 0 90 60 50
        E 88 90 59 00
        E 0 90 60 00
        E 16 90 5b 00
        E 126 90 5b 5e
        E 4 90 59 53
        E 13 90 60 54
        E 172 90 60 00
        E 7 90 59 00
        E 14 90 5b 00
        E 486 90 43 66
        E 173 90 43 00
        E 439 90 3c 63
        E 484 90 3c 00
        E 119 90 5b 44
        E 0 90 58 50
        E 125 90 58 00
        E 11 90 5b 00
        E 126 90 43 4f
        E 24 90 5a 4c
        E 0 90 57 49
        E 74 90 5a 00
        E 2 90 57 00
        E 31 90 43 00
        E 151 90 59 59
        E 4 90 56 56
        E 68 90 56 00
        E 115 90 59 00
        E 71 90 57 57
        E 30 90 53 4f
        E 220 90 53 00
        E 39 90 48 5c
        E 74 90 57 00
        E 135 90 48 00
        E 87 90 58 56
        E 16 90 54 4c
        E 133 90 54 00
        E 34 90 58 00
        E 87 90 41 5c
        E 264 90 50 53
        E 35 90 4d 44
        E 14 90 41 00
        E 81 90 4d 00
        E 82 90 50 00
        E 64 90 4d 49
        E 41 90 51 4f
        E 148 90 4d 00
        E 19 90 51 00
        E 67 90 48 59
        E 8 90 54 59
        E 58 90 4d 3e
        E 27 90 48 00
        E 74 90 4d 00
        E 105 90 48 5a
        E 170 90 48 00
        E 143 90 54 00
        E 17 90 51 52
        E 25 90 4d 47
        E 126 90 4d 00
        E 65 90 51 00
        E 64 90 41 56
        E 9 90 54 53
        E 15 90 4d 3e
        E 183 90 4d 00
        E 19 90 41 00
        E 64 90 54 00
        E 4 90 56 5a
        E 250 90 56 00
        E 120 90 3c 43
        E 307 90 3c 00
        E 382 90 44 63
        E 13 90 50 67
        E 27 90 57 5c
        E 101 90 50 00
        E 38 90 44 00
        E 11 90 57 00
        E 927 90 46 67
        E 21 90 56 63
        E 8 90 4d 53
        E 6 90 4f 53
        E 65 90 4f 00
        E 25 90 4d 00
        E 17 90 46 00
        E 27 90 56 00
        E 773 90 54 5f
        E 0 90 48 64
        E 7 90 4d 56
        E 119 90 4d 00
        E 11 90 48 00
        E 19 90 54 00
        E 798 90 43 57
        E 85 90 43 00
        E 150 90 43 60
        E 221 90 43 00
        E 402 90 3c 58
        E 172 90 3c 00
        E 474 90 38 58
        E 12 90 50 59
        E 8 90 54 53
        E 94 90 50 00
        E 9 90 54 00
        E 59 90 38 00
        E 111 90 50 47
        E 32 90 54 3e
        E 141 90 50 00
        E 9 90 54 00
        E 448 90 3f 5f
        E 19 90 50 5b
        E 16 90 54 4e
        E 131 90 54 00
        E 13 90 50 00
        E 10 90 3f 00
        E 355 90 50 4b
        E 22 90 54 46
        E 156 90 54 00
        E 9 90 50 00
        E 99 90 56 4e
        E 0 90 44 61
        E 4 90 52 4e
        E 156 90 52 00
        E 32 90 44 00
        E 33 90 56 00
        E 376 90 48 53
        E 37 90 58 49
        E 0 90 4f 57
        E 95 90 4f 00
        E 4 90 58 00
        E 53 90 48 00
        E 146 90 54 52
        E 5 90 4c 57
        E 255 90 4c 00
        E 148 90 54 00
        E 84 90 51 50
        E 17 90 43 63
        E 178 90 43 00
        E 124 90 51 00
        E 9 90 48 47
        E 16 90 4f 4e
        E 349 90 48 00
        E 72 90 4f 00
        E 134 90 37 5c
        E 194 90 37 00
        E 431 90 50 57
        E 6 90 38 5c
        E 19 90 54 52
        E 130 90 50 00
        E 6 90 54 00
        E 30 90 38 00
        E 99 90 50 50
        E 10 90 54 47
        E 162 90 50 00
        E 6 90 54 00
        E 461 90 50 5e
        E 0 90 3f 64
        E 25 90 54 4f
        E 130 90 3f 00
        E 19 90 50 00
        E 57 90 54 00
        E 290 90 50 47
        E 44 90 54 36
        E 120 90 54 00
        E 35 90 50 00
        E 74 90 52 53
        E 0 90 44 5f
        E 23 90 56 4c
        E 137 90 44 00
        E 118 90 52 00
        E 11 90 56 00
        E 29 90 58 57
        E 0 90 4f 5a
        E 276 90 48 66
        E 211 90 48 00
        E 795 90 43 5f
        E 150 90 43 00
        E 691 90 37 58
        E 99 90 4f 00
        E 33 90 58 00
        E 42 90 37 00
        E 569 90 38 5b
        E 0 90 50 5c
        E 34 90 54 4c
        E 93 90 54 00
        E 52 90 38 00
        E 0 90 50 00
        E 106 90 54 43
        E 5 90 50 53
        E 217 90 50 00
        E 44 90 54 00
        E 321 90 3f 63
        E 3 90 50 54
        E 13 90 54 4e
        E 151 90 3f 00
        E 23 90 50 00
        E 38 90 54 00
        E 341 90 50 4c
        E 37 90 54 3e
        E 119 90 54 00
        E 40 90 50 00
        E 100 90 52 4b
        E 0 90 56 4e
        E 0 90 44 65
        E 154 90 44 00
        E 110 90 52 00
        E 47 90 56 00
        E 273 90 48 59
        E 18 90 58 52
        E 0 90 4f 56
        E 75 90 58 00
        E 0 90 4f 00
        E 83 90 48 00
        E 146 90 4c 5d
        E 11 90 54 49
        E 241 90 4c 00
        E 129 90 54 00
        E 168 90 51 54
        E 0 90 43 63
        E 135 90 43 00
        E 190 90 51 00
        E 0 90 48 4f
        E 0 90 4f 49
        E 438 90 48 00
        E 106 90 4f 00
        E 17 90 37 5a
        E 223 90 37 00
        E 413 90 3e 66
        E 26 90 4e 67
        E 0 90 58 59
        E 156 90 3e 00
        E 8 90 58 00
        E 5 90 4e 00
        E 117 90 3e 66
        E 7 90 58 59
        E 0 90 4e 5b
        E 8 b0 40 00
        E 162 90 3e 00
        E 7 90 4e 00
        E 25 90 58 00
        E 352 90 3e 66
        E 24 90 58 5a
        E 0 90 4e 61
        E 155 90 4e 00
        E 3 90 3e 00
        E 31 90 58 00
        E 370 90 4e 57
        E 0 90 3e 61
        E 37 90 54 44
        E 56 90 4e 00
        E 50 90 3e 00
        E 73 90 54 00
        E 29 90 3e 6e
        E 19 90 4e 52
        E 10 90 58 56
        E 81 90 4e 00
        E 63 90 3e 00
        E 23 90 58 00
        E 421 90 5b 65
        E 7 90 4f 57
        E 4 90 53 5d
        E 105 90 4f 00
        E 65 90 53 00
        E 8 90 5b 00
        E 979 90 43 5d
        E 24 90 4f 5c
        E 176 90 43 00
        E 0 90 4f 00
        E 984 90 3c 55
        E 17 90 58 4e
        E 0 90 54 56
        E 93 90 54 00
        E 11 90 58 00
        E 93 90 3c 00
        E 140 90 54 47
        E 11 90 51 50
        E 172 90 51 00
        E 33 90 54 00
        E 298 90 4f 5c
        E 15 90 4c 54
        E 0 90 42 57
        E 107 90 42 00
        E 164 90 43 60
        E 168 90 43 00
        E 67 90 4c 00
        E 195 90 4f 00
        E 169 90 48 5c
        E 0 90 50 5f
        E 22 90 4d 53
        E 92 90 4d 00
        E 42 90 50 00
        E 8 90 48 00
        E 384 90 41 52
        E 9 90 4d 53
        E 9 90 51 4f
        E 129 90 51 00
        E 26 90 4d 00
        E 46 90 41 00
        E 129 90 51 4a
        E 8 90 59 57
        E 240 90 59 00
        E 7 90 51 00
        E 27 90 41 52
        E 196 90 41 00
        E 70 90 51 52
        E 5 90 59 43
        E 88 90 59 00
        E 6 90 51 00
        E 153 90 48 60
        E 11 90 51 4a
        E 0 90 4d 59
        E 102 90 48 00
        E 155 90 48 57
        E 148 90 4d 00
        E 41 90 48 00
        E 114 90 41 54
        E 253 90 41 00
        E 155 90 51 00
        E 128 90 43 59
        E 8 90 4f 54
        E 5 90 53 60
        E 92 90 4f 00
        E 69 90 53 00
        E 236 90 43 00
        E 81 90 59 5d
        E 9 90 5d 53
        E 135 90 5d 00
        E 25 90 59 00
        E 145 90 43 4b
        E 0 90 59 5b
        E 8 90 5d 52
        E 44 90 45 31
        E 79 90 5d 00
        E 18 90 43 00
        E 13 90 59 00
        E 25 90 45 00
        E 102 90 59 54
        E 11 90 5d 54
        E 0 90 45 5c
        E 178 90 45 00
        E 33 90 59 00
        E 75 90 5d 00
        E 38 90 58 5a
        E 21 90 5b 54
        E 226 90 47 5f
        E 89 90 47 00
        E 52 90 5b 00
        E 20 90 58 00
        E 100 90 59 4f
        E 0 90 56 59
        E 86 90 59 00
        E 0 90 56 00
        E 195 90 3c 4d
        E 40 90 58 57
        E 7 90 54 52
        E 90 90 54 00
        E 73 90 58 00
        E 107 90 3c 00
        E 6 90 54 4b
        E 7 90 51 5d
        E 268 90 51 00
        E 27 90 54 00
        E 170 90 51 4f
        E 21 90 43 54
        E 16 90 4d 4c
        E 80 90 4d 00
        E 74 90 51 00
        E 4 90 43 00
        E 107 90 48 5d
        E 9 90 4f 60
        E 8 90 4c 59
        E 86 90 48 00
        E 161 90 48 57
        E 176 90 48 00
        E 63 90 4c 00
        E 50 90 4f 00
        E 18 90 43 52
        E 226 90 43 00
        E 353 90 3c 5b
        E 0 90 54 5c
        E 8 90 58 56
        E 73 90 58 00
        E 17 90 54 00
        E 119 90 3c 00
        E 84 90 54 47
        E 15 90 51 59
        E 237 90 54 00
        E 46 90 51 00
        E 268 90 42 57
        E 0 90 4c 57
        E 12 90 4f 56
        E 104 90 42 00
        E 152 90 43 5d
        E 194 90 4c 00
        E 3 90 43 00
        E 179 90 4f 00
        E 187 90 50 65
        E 9 90 48 57
        E 24 90 4d 50
        E 70 90 4d 00
        E 50 90 50 00
        E 23 90 48 00
        E 387 90 41 57
        E 23 90 4d 50
        E 12 90 51 50
        E 120 90 51 00
        E 4 90 4d 00
        E 13 90 41 00
        E 148 90 51 42
        E 6 90 59 59
        E 227 90 59 00
        E 36 90 51 00
        E 2 90 41 56
        E 205 90 41 00
        E 59 90 59 47
        E 22 90 51 50
        E 76 90 59 00
        E 75 90 51 00
        E 91 90 48 4c
        E 28 90 51 54
        E 4 90 4d 54
        E 44 90 48 00
        E 183 90 48 44
        E 172 90 4d 00
        E 10 90 48 00
        E 99 90 41 52
        E 195 90 41 00
        E 213 90 51 00
        E 163 90 4f 4c
        E 0 90 43 52
        E 8 90 53 57
        E 69 90 4f 00
        E 26 90 53 00
        E 62 90 43 00
        E 166 90 43 54
        E 4 90 59 59
        E 22 90 56 59
        E 148 90 43 00
        E 31 90 56 00
        E 19 90 59 00
        E 327 90 56 59
        E 13 90 43 57
        E 22 90 59 3a
        E 70 90 43 00
        E 25 90 59 00
        E 41 90 56 00
        E 113 90 59 4c
        E 0 90 43 49
        E 5 90 56 5f
        E 106 90 43 00
        E 80 90 56 00
        E 95 90 59 00
        E 95 90 54 5a
        E 20 90 45 52
        E 15 90 58 56
        E 150 90 45 00
        E 172 90 54 00
        E 10 90 58 00
        E 26 90 47 5c
        E 66 90 53 5a
        E 0 90 56 5c
        E 57 90 47 00
        E 70 90 53 00
        E 73 90 56 00
        E 94 90 55 50
        E 6 90 48 60
        E 34 90 4f 50
        E 9 90 54 59
        E 15 90 55 00
        E 145 90 48 00
        E 122 90 43 59
        E 207 90 43 00
        E 318 90 43 59
        E 189 90 43 00
        E 151 90 3c 57
        E 263 90 3c 00
        E 17 90 4f 00
        E 30 90 54 00
        E 1305 90 3c 74
        E 525 90 3e 48
        E 68 90 3c 00
        E 36 90 40 58
        E 18 90 3e 00
        E 56 90 40 00
        E 6 90 41 59
        E 55 90 41 00
        E 10 90 43 5d
        E 48 90 43 00
        E 13 90 45 5a
        E 56 90 45 00
        E 6 90 47 5a
        E 50 90 47 00
        E 10 90 48 5a
        E 57 90 48 00
        E 0 90 4a 5f
        E 54 90 4c 5a
        E 3 90 4a 00
        E 56 90 4d 59
        E 2 90 4c 00
        E 57 90 4f 5a
        E 3 90 4d 00
        E 57 90 4f 00
        E 0 90 51 5a
        E 61 90 51 00
        E 0 90 53 5c
        E 54 90 53 00
        E 7 90 54 57
        E 62 90 54 00
        E 4 90 56 5d
        E 48 90 56 00
        E 15 90 58 57
        E 72 90 58 00
        E 0 90 59 57
        E 69 90 59 00
        E 0 90 5b 5b
        E 55 90 5b 00
        E 10 90 5d 5b
        E 56 90 5d 00
        E 16 90 5f 5a
        E 96 90 60 44
        E 105 90 5f 00
        E 1315 90 60 00
        E 1213 90 43 54
        E 9 90 35 53
        E 143 b0 40 7f
        E 75 90 43 00
        E 122 90 48 4a
        E 0 90 3c 4c
        E 56 90 35 00
        E 165 90 48 00
        E 37 90 3c 00
        E 9 90 4c 52
        E 17 90 40 44
        E 19 90 3f 37
        E 128 90 3f 00
        E 9 90 4c 00
        E 25 90 40 00
        E 109 90 43 4c
        E 21 90 4f 52
        E 114 90 43 00
        E 108 90 4f 00
        E 18 90 48 4e
        E 46 90 54 4c
        E 226 90 54 00
        E 32 90 48 00
        E 14 90 4c 39
        E 28 90 58 54
        E 250 90 4c 00
        E 42 90 4f 5f
        E 0 90 5b 57
        E 31 90 58 00
        E 257 90 4f 00
        E 302 90 5b 00
        E 246 90 4c 5a
        E 33 90 58 59
        E 64 90 4c 00
        E 41 90 58 00
        E 709 b0 40 00
        E 45 90 44 63
        E 7 90 38 5a
        E 155 b0 40 7f
        E 51 90 44 00
        E 43 90 38 00
        E 62 90 3c 4d
        E 13 90 48 52
        E 203 90 3c 00
        E 4 90 48 00
        E 56 90 3f 51
        E 41 90 4b 4f
        E 267 90 4b 00
        E 22 90 50 54
        E 11 90 3f 00
        E 5 90 44 54
        E 118 90 50 00
        E 97 90 44 00
        E 85 90 48 47
        E 8 90 54 4e
        E 200 90 48 00
        E 27 90 54 00
        E 23 90 4b 50
        E 48 90 57 56
        E 236 90 57 00
        E 40 90 4b 00
        E 47 90 50 5f
        E 15 90 5c 63
        E 224 90 5c 00
        E 137 90 50 00
        E 510 90 4b 5b
        E 14 90 57 57
        E 79 90 57 00
        E 47 90 4b 00
        E 690 b0 40 00
        E 56 90 3a 5b
        E 19 90 46 67
        E 109 b0 40 7f
        E 98 90 46 00
        E 77 90 3a 00
        E 35 90 3e 50
        E 15 90 4a 53
        E 177 90 3e 00
        E 17 90 4a 00
        E 88 90 41 50
        E 15 90 4d 47
        E 277 90 4d 00
        E 19 90 46 54
        E 10 90 41 00
        E 14 90 52 53
        E 122 90 52 00
        E 96 90 46 00
        E 91 90 4a 54
        E 17 90 56 5c
        E 178 90 4a 00
        E 44 90 56 00
        E 16 90 4d 53
        E 27 90 59 4e
        E 343 90 59 00
        E 8 90 52 5e
        E 23 90 5e 64
        E 18 90 4d 00
        E 159 90 52 00
        E 28 90 5e 00
        E 776 90 4a 60
        E 0 90 3e 55
        E 14 b0 40 00
        E 29 90 59 54
        E 0 90 56 56
        E 0 90 5e 57
        E 70 90 56 00
        E 14 90 5e 00
        E 7 90 4a 00
        E 0 90 59 00
        E 46 90 3e 00
        E 141 90 3e 58
        E 2 90 4a 59
        E 19 90 56 49
        E 8 90 59 47
        E 0 90 5e 44
        E 99 90 56 00
        E 9 90 5e 00
        E 3 90 59 00
        E 33 90 3e 00
        E 3 90 4a 00
        E 138 90 3e 5f
        E 0 90 4a 60
        E 31 90 5e 47
        E 8 90 56 54
        E 49 90 59 37
        E 43 90 4a 00
        E 31 90 3e 00
        E 13 90 56 00
        E 19 90 59 00
        E 10 90 5e 00
        E 233 90 60 65
        E 0 90 3c 66
        E 0 90 48 6a
        E 0 90 58 60
        E 6 90 54 5d
        E 2046 90 60 00
        E 4 90 54 00
        E 23 90 48 00
        E 9 90 58 00
        E 11 90 3c 00
        E 3586 b0 7b 00
        GUID {2C9343E6-9B04-3841-AFD1-ECB666A610E1}
        IGNTEMPO 0 120 4 4
        SRCCOLOR 7
      >
    >
  >
>
